<svg xmlns="http://www.w3.org/2000/svg" viewBox="0 0 53 52.05"><g fill="#008cff"><path fill-opacity=".6" d="M26.4 9.45a17.05 17.05 0 0 0-11.64 4.72l2.35 2.36a13.7 13.7 0 0 1 9.3-3.73 13.7 13.7 0 0 1 9.15 3.42l2.37-2.37a17.05 17.05 0 0 0-11.5-4.4zM42.84 21.7l-3.24.86a13.7 13.7 0 0 1 .6 3.82v.12a13.7 13.7 0 0 1-10.1 13.2l.87 3.23A17.05 17.05 0 0 0 43.55 26.5v-.15a17.05 17.05 0 0 0-.7-4.66zm-32.74.15a17.05 17.05 0 0 0-.65 4.72A17.05 17.05 0 0 0 21.4 42.75l.88-3.23a13.7 13.7 0 0 1-9.48-12.96 13.7 13.7 0 0 1 .54-3.84l-3.23-.87z"/><path d="M39.03 26.5a12.53 12.53 0 0 1-12.5 12.53 12.53 12.53 0 0 1-12.56-12.48 12.53 12.53 0 0 1 12.45-12.58 12.53 12.53 0 0 1 12.6 12.42"/><path fill-opacity=".3" d="M26.35 4.52a21.98 21.98 0 0 0-15.08 6.17l2.65 2.62a18.22 18.22 0 0 1 12.46-5.06A18.22 18.22 0 0 1 38.73 13l2.66-2.66A21.98 21.98 0 0 0 26.32 4.5zM47.6 20.4l-3.64 1a18.22 18.22 0 0 1 .76 4.94v.16a18.22 18.22 0 0 1-13.45 17.58l.97 3.6A21.98 21.98 0 0 0 48.48 26.5v-.2a21.98 21.98 0 0 0-.88-5.9zm-42.25.18a21.98 21.98 0 0 0-.83 6.02 21.98 21.98 0 0 0 15.6 20.92l.98-3.62A18.22 18.22 0 0 1 8.28 26.58a18.22 18.22 0 0 1 .7-5.03l-3.63-.97z"/><path fill-opacity=".1" d="M26.32 0A26.5 26.5 0 0 0 8.08 7.5l2.23 2.23a23.32 23.32 0 0 1 16.07-6.55 23.32 23.32 0 0 1 15.98 6.24l2.26-2.27A26.5 26.5 0 0 0 26.3 0zm25.63 19.25l-3.06.82a23.32 23.32 0 0 1 .9 6.22v.2A23.32 23.32 0 0 1 32.6 49l.8 3.05A26.5 26.5 0 0 0 53 26.5v-.23a26.5 26.5 0 0 0-1.05-7.02zM1 19.4a26.5 26.5 0 0 0-1 7.22 26.5 26.5 0 0 0 18.97 25.26l.8-3.05A23.32 23.32 0 0 1 3.17 26.6a23.32 23.32 0 0 1 .9-6.37l-3.1-.83z"/></g></svg>