<svg xmlns="http://www.w3.org/2000/svg" viewBox="0 0 56 55"><g fill="#ffbf00"><path fill-opacity=".6" d="M27.88 10a18 18 0 0 0-12.3 4.98l2.5 2.5a14.48 14.48 0 0 1 9.82-3.96 14.48 14.48 0 0 1 9.64 3.6l2.5-2.5A18 18 0 0 0 27.88 10zm17.38 12.92l-3.42.9a14.48 14.48 0 0 1 .64 4.05V28A14.48 14.48 0 0 1 31.8 41.96l.92 3.4A18 18 0 0 0 46.02 28v-.16a18 18 0 0 0-.76-4.92zm-34.58.18a18 18 0 0 0-.7 4.98 18 18 0 0 0 12.64 17.1l.92-3.42a14.48 14.48 0 0 1-10.02-13.7A14.48 14.48 0 0 1 14.1 24l-3.42-.9z"/><path d="M41.24 28a13.24 13.24 0 0 1-13.2 13.24 13.24 13.24 0 0 1-13.28-13.18 13.24 13.24 0 0 1 13.15-13.3 13.24 13.24 0 0 1 13.4 13.12"/><path fill-opacity=".3" d="M27.85 4.77A23.23 23.23 0 0 0 11.9 11.3l2.8 2.8a19.25 19.25 0 0 1 13.17-5.35 19.25 19.25 0 0 1 13.05 5l2.82-2.8a23.23 23.23 0 0 0-15.9-6.18zm22.45 16.8l-3.85 1.03a19.25 19.25 0 0 1 .8 5.23V28a19.25 19.25 0 0 1-14.2 18.57l1.02 3.82A23.23 23.23 0 0 0 51.23 28v-.2a23.23 23.23 0 0 0-.94-6.23zm-44.65.17a23.23 23.23 0 0 0-.88 6.36 23.23 23.23 0 0 0 16.5 22.1l1.03-3.82a19.25 19.25 0 0 1-13.55-18.3 19.25 19.25 0 0 1 .74-5.3l-3.9-1.04z"/><path fill-opacity=".1" d="M27.8 0A28 28 0 0 0 8.54 7.92l2.36 2.36a24.64 24.64 0 0 1 16.94-6.92 24.64 24.64 0 0 1 16.9 6.6l2.38-2.4A28 28 0 0 0 27.82 0zm27.1 20.34l-3.25.86a24.64 24.64 0 0 1 1 6.58V28a24.64 24.64 0 0 1-18.2 23.78L35.3 55A28 28 0 0 0 56 28v-.25a28 28 0 0 0-1.1-7.4zm-53.86.16A28 28 0 0 0 0 28.13a28 28 0 0 0 20.04 26.7l.86-3.23A24.64 24.64 0 0 1 3.36 28.1a24.64 24.64 0 0 1 .93-6.72L1 20.5z"/></g></svg>