<svg xmlns="http://www.w3.org/2000/svg" viewBox="0 0 66 64.82"><g fill="red"><path fill-opacity=".6" d="M32.86 11.77a21.23 21.23 0 0 0-14.5 5.88l2.95 2.94a17.06 17.06 0 0 1 11.6-4.7 17.06 17.06 0 0 1 11.4 4.24l2.95-2.95a21.23 21.23 0 0 0-14.33-5.48zM53.36 27l-4.04 1.1a17.06 17.06 0 0 1 .74 4.75V33A17.06 17.06 0 0 1 37.5 49.46l1.06 4A21.23 21.23 0 0 0 54.23 33v-.2a21.23 21.23 0 0 0-.88-5.8zm-40.76.2a21.23 21.23 0 0 0-.83 5.9 21.23 21.23 0 0 0 14.9 20.13l1.07-4a17.06 17.06 0 0 1-11.8-16.16 17.06 17.06 0 0 1 .68-4.78l-4.03-1.1z"/><path d="M48.6 33a15.6 15.6 0 0 1-15.57 15.6A15.6 15.6 0 0 1 17.4 33.07 15.6 15.6 0 0 1 32.9 17.4a15.6 15.6 0 0 1 15.7 15.46"/><path fill-opacity=".3" d="M32.82 5.63a27.37 27.37 0 0 0-18.8 7.68l3.3 3.3a22.7 22.7 0 0 1 15.53-6.3 22.7 22.7 0 0 1 15.37 5.97l3.33-3.33a27.37 27.37 0 0 0-18.73-7.26zm26.45 19.8l-4.52 1.2a22.7 22.7 0 0 1 .94 6.17v.2a22.7 22.7 0 0 1-16.8 21.9l1.2 4.5A27.37 27.37 0 0 0 60.36 33v-.24a27.37 27.37 0 0 0-1.1-7.34zm-52.6.2a27.37 27.37 0 0 0-1.04 7.5 27.37 27.37 0 0 0 19.44 26.04l1.2-4.5A22.7 22.7 0 0 1 10.32 33.1a22.7 22.7 0 0 1 .9-6.26l-4.54-1.2z"/><path fill-opacity=".1" d="M32.78 0a33 33 0 0 0-22.72 9.33l2.78 2.78A29.04 29.04 0 0 1 32.8 4a29.04 29.04 0 0 1 19.92 7.76l2.8-2.8A33 33 0 0 0 32.8 0zM64.7 23.97L60.88 25a29.04 29.04 0 0 1 1.16 7.74V33A29.04 29.04 0 0 1 40.6 61.02l1 3.8A33 33 0 0 0 66 33v-.3a33 33 0 0 0-1.3-8.73zm-63.47.2A33 33 0 0 0 0 33.15 33 33 0 0 0 23.62 64.6l1.02-3.8A29.04 29.04 0 0 1 3.96 33.13a29.04 29.04 0 0 1 1.1-7.93l-3.83-1.03z"/></g></svg>