<svg xmlns="http://www.w3.org/2000/svg" viewBox="0 0 78 76.6"><g fill="#ff00ed"><path fill-opacity=".6" d="M38.83 13.9a25.1 25.1 0 0 0-17.1 6.96l3.46 3.47a20.16 20.16 0 0 1 13.6-5.5 20.16 20.16 0 0 1 13.4 5.03l3.5-3.48a25.1 25.1 0 0 0-16.9-6.48zm24.22 18.02l-4.77 1.28a20.16 20.16 0 0 1 .88 5.62V39A20.16 20.16 0 0 1 44.3 58.45l1.28 4.73A25.1 25.1 0 0 0 64.08 39v-.22a25.1 25.1 0 0 0-1.03-6.86zm-48.17.24a25.1 25.1 0 0 0-.97 6.95 25.1 25.1 0 0 0 17.6 23.8l1.3-4.7a20.16 20.16 0 0 1-13.9-19.1 20.16 20.16 0 0 1 .8-5.6l-4.77-1.3z"/><path d="M57.44 39a18.44 18.44 0 0 1-18.4 18.44 18.44 18.44 0 0 1-18.48-18.36 18.44 18.44 0 0 1 18.32-18.52 18.44 18.44 0 0 1 18.56 18.28"/><path fill-opacity=".3" d="M38.8 6.65a32.35 32.35 0 0 0-22.22 9.08l3.9 3.9a26.8 26.8 0 0 1 18.34-7.44A26.8 26.8 0 0 1 57 19.1l3.92-3.92A32.35 32.35 0 0 0 38.8 6.6zm31.25 23.4l-5.35 1.43a26.8 26.8 0 0 1 1.1 7.28V39a26.8 26.8 0 0 1-19.77 25.87l1.42 5.32A32.35 32.35 0 0 0 71.35 39v-.3a32.35 32.35 0 0 0-1.3-8.66zm-62.18.23a32.35 32.35 0 0 0-1.22 8.86 32.35 32.35 0 0 0 22.98 30.8l1.43-5.33A26.8 26.8 0 0 1 12.2 39.2a26.8 26.8 0 0 1 1.02-7.4l-5.35-1.5z"/><path fill-opacity=".1" d="M38.74 0A39 39 0 0 0 11.9 11.03l3.27 3.28a34.32 34.32 0 0 1 23.6-9.6 34.32 34.32 0 0 1 23.53 9.2l3.33-3.3A39 39 0 0 0 38.73 0zm37.72 28.32l-4.5 1.2a34.32 34.32 0 0 1 1.36 9.18v.3a34.32 34.32 0 0 1-25.35 33.12l1.2 4.48A39 39 0 0 0 78 39v-.34a39 39 0 0 0-1.54-10.34zm-75 .24A39 39 0 0 0 0 39.16a39 39 0 0 0 27.9 37.2l1.22-4.5a34.32 34.32 0 0 1-24.44-32.7 34.32 34.32 0 0 1 1.3-9.38l-4.53-1.22z"/></g></svg>