<svg xmlns="http://www.w3.org/2000/svg" viewBox="0 0 90 88.39"><g fill="#9c00ff"><path fill-opacity=".6" d="M44.8 16.05a28.95 28.95 0 0 0-19.74 8.02l4 4a23.27 23.27 0 0 1 15.8-6.34 23.27 23.27 0 0 1 15.48 5.8l4.02-4a28.95 28.95 0 0 0-19.55-7.48zm27.94 20.78l-5.5 1.47a23.27 23.27 0 0 1 1.03 6.5v.2a23.27 23.27 0 0 1-17.15 22.44l1.47 5.46A28.95 28.95 0 0 0 73.9 45v-.26a28.95 28.95 0 0 0-1.2-7.9zm-55.58.27a28.95 28.95 0 0 0-1.1 8.03 28.95 28.95 0 0 0 20.3 27.46l1.47-5.5a23.27 23.27 0 0 1-16.1-22 23.27 23.27 0 0 1 .93-6.57l-5.5-1.47z"/><path d="M66.28 45a21.28 21.28 0 0 1-21.23 21.28 21.28 21.28 0 0 1-21.33-21.2 21.28 21.28 0 0 1 21.14-21.36 21.28 21.28 0 0 1 21.42 21.1"/><path fill-opacity=".3" d="M44.75 7.67a37.33 37.33 0 0 0-25.6 10.48l4.5 4.5a30.94 30.94 0 0 1 21.14-8.6 30.94 30.94 0 0 1 20.9 8.05l4.53-4.5A37.33 37.33 0 0 0 44.7 7.7zm36.08 27l-6.18 1.65a30.94 30.94 0 0 1 1.3 8.4V45A30.94 30.94 0 0 1 53.1 74.85L54.76 81a37.33 37.33 0 0 0 27.58-36v-.33a37.33 37.33 0 0 0-1.5-10zm-71.75.27a37.33 37.33 0 0 0-1.4 10.22 37.33 37.33 0 0 0 26.5 35.53l1.66-6.2a30.94 30.94 0 0 1-21.78-29.4 30.94 30.94 0 0 1 1.2-8.55L9.08 34.9z"/><path fill-opacity=".1" d="M44.7 0a45 45 0 0 0-30.98 12.73l3.8 3.8A39.6 39.6 0 0 1 44.72 5.4 39.6 39.6 0 0 1 71.9 16l3.82-3.85A45 45 0 0 0 44.7 0zm43.53 32.68l-5.2 1.4a39.6 39.6 0 0 1 1.57 10.57V45a39.6 39.6 0 0 1-29.25 38.2l1.4 5.2A45 45 0 0 0 90 45v-.4a45 45 0 0 0-1.77-11.92zm-86.55.28A45 45 0 0 0 0 45.2a45 45 0 0 0 32.2 42.9l1.4-5.2A39.6 39.6 0 0 1 5.4 45.18a39.6 39.6 0 0 1 1.5-10.8l-5.22-1.4z"/></g></svg>